<?xml version="1.0" encoding="utf-8"?>
<!-- Generator: Adobe Illustrator 17.0.2, SVG Export Plug-In . SVG Version: 6.00 Build 0)  -->
<!DOCTYPE svg PUBLIC "-//W3C//DTD SVG 1.1//EN" "http://www.w3.org/Graphics/SVG/1.1/DTD/svg11.dtd">
<svg version="1.1" id="Layer_1" xmlns="http://www.w3.org/2000/svg" xmlns:xlink="http://www.w3.org/1999/xlink" x="0px" y="0px"
	 width="1366px" height="768px" viewBox="0 0 1366 768" enable-background="new 0 0 1366 768" xml:space="preserve">
<g>
	<circle fill="#64E050" cx="683.007" cy="384.331" r="125"/>
	<g>
		<polygon fill="#FFFFFF" points="720.506,415.09 718.143,401.117 706.181,404.773 712.037,417.68 		"/>
		<path fill="#FFFFFF" d="M725.881,426.341c-1.15-3.759-4.124-8.126-5.141-9.558l-8.487,2.595c-0.885,1.71-2.776,6.288-0.865,11.394
			c1.943,5.187,12.035,17.888,11.538,12.654C721.933,432.963,727.277,430.912,725.881,426.341z"/>
		<path fill="#FFFFFF" d="M711.173,378.128c-6.72-23.071-17.395-56.11-23.284-54.31c-5.575,1.705,2.715,31.239,9.878,54.31h-26.784
			l7.445-17.669l-11.559-4.84l-9.527,22.509h-25.336v14.571h7.286v-4.857h1.214v4.857h7.286v-4.857h1.214v4.857h1.973
			l-16.067,37.932c-0.034,0.063-0.067,0.169-0.096,0.237c-0.404,0.951-0.114,2.005,0.647,2.329c0.763,0.324,1.708-0.176,2.113-1.128
			c0.016-0.036,0.028-0.069,0.041-0.104l0.011,0.006c-0.018,0.035-0.036,0.07-0.051,0.107c-0.404,0.952,0.155,2.101,1.252,2.566
			c0.883,0.375,1.842,0.192,2.393-0.391c-0.092,0.778,0.279,1.528,0.97,1.82c0.857,0.366,1.88-0.113,2.284-1.065
			c0.016-0.036,0.028-0.074,0.041-0.111l0.007,0.004c-0.017,0.035-0.033,0.07-0.049,0.107c-0.404,0.952-0.307,1.904,0.216,2.127
			c0.525,0.222,1.276-0.37,1.681-1.322c0.016-0.036,0.028-0.073,0.043-0.109l0.013-0.074l18.189-42.93h2.602v-4.857h1.214v4.857h8.5
			v-4.857h1.214v4.857h8.5v-4.857h1.214v4.857h8.5v-4.857h1.214v4.857h5.085c1.855,6.071,3.196,9.395,3.495,10.239l11.021-3.411
			c-0.172-0.667-0.812-3.185-1.803-6.828h1.631v-4.857h1.214v4.857h8.5v-4.857h1.214v4.857h6.071v-14.571H711.173z"/>
		<path fill="#FFFFFF" d="M685.31,344.112c0.809-1.904-0.079-4.104-1.987-4.913l-4.657-1.977c-1.905-0.809-4.107,0.08-4.914,1.984
			l-2.271,5.349l11.559,4.906L685.31,344.112z"/>
		
			<rect x="668.677" y="348.6" transform="matrix(-0.9205 -0.3907 0.3907 -0.9205 1158.5609 940.5776)" fill="#FFFFFF" width="12.556" height="7.683"/>
		<polygon fill="#FFFFFF" points="635.5,444.914 640.051,441.146 635.048,439.022 		"/>
	</g>
</g>
</svg>
