<?xml version="1.0" encoding="utf-8"?>
<!-- Generator: Adobe Illustrator 17.0.2, SVG Export Plug-In . SVG Version: 6.00 Build 0)  -->
<!DOCTYPE svg PUBLIC "-//W3C//DTD SVG 1.1//EN" "http://www.w3.org/Graphics/SVG/1.1/DTD/svg11.dtd">
<svg version="1.1" id="Layer_1" xmlns="http://www.w3.org/2000/svg" xmlns:xlink="http://www.w3.org/1999/xlink" x="0px" y="0px"
	 width="250px" height="250px" viewBox="558 259 250 250" enable-background="new 558 259 250 250" xml:space="preserve">
<g>
	<circle fill="#64E050" cx="682.768" cy="384.332" r="125"/>
	<g>
		<g>
			<path fill="#FFFFFF" d="M704.633,413.085h-6.298h-43.13H621.66v-62.28c0.005-0.005,0.01-0.014,0.019-0.019h105.396
				c0.004,0.005,0.014,0.01,0.019,0.019l-0.001,12.911h4.788v-8.138c0-5.27-4.312-9.584-9.584-9.584h-95.844
				c-5.272,0-9.584,4.315-9.584,9.584v57.506H597.7c0,0,3.354,9.584,19.169,9.584s97.875,0,115.013,0
				c1.807,0,3.444-0.108,4.931-0.298l-32.178-1.272v-8.013H704.633z"/>
		</g>
		<g>
			<path fill="#FFFFFF" d="M738.267,416.214l0.029-5.948h-32.31v-45.48h37.211v9.866l4.135,0.077v-14.077
				c0-2.273-1.861-4.135-4.135-4.135h-37.211c-2.273,0-4.135,1.861-4.135,4.135v57.883c0,2.273,1.861,4.135,4.135,4.135h37.211
				c0.375,0,0.739-0.052,1.085-0.147c-0.331-0.017-0.519-0.029-0.519-0.029L738.267,416.214z M724.591,419.686
				c-1.777,0-3.216-1.441-3.216-3.218s1.439-3.218,3.216-3.218s3.216,1.441,3.216,3.218S726.368,419.686,724.591,419.686z"/>
		</g>
		<path fill="#FFFFFF" d="M763.128,372.425h-21.982c-2.591,0-4.71,2.119-4.71,4.71v40.824c0,2.591,2.119,4.71,4.71,4.71h21.982
			c2.591,0,4.71-2.119,4.71-4.71v-40.824C767.838,374.544,765.719,372.425,763.128,372.425z M745.856,374.78h12.561v1.57h-12.561
			V374.78z M752.136,415.596c1.306,0,2.363,1.057,2.363,2.363s-1.057,2.363-2.363,2.363c-1.306,0-2.363-1.057-2.363-2.363
			S750.83,415.596,752.136,415.596z M764.698,413.249h-25.122v-34.543h25.122V413.249z"/>
	</g>
</g>
</svg>
