<?xml version="1.0" encoding="utf-8"?>
<!-- Generator: Adobe Illustrator 17.0.2, SVG Export Plug-In . SVG Version: 6.00 Build 0)  -->
<!DOCTYPE svg PUBLIC "-//W3C//DTD SVG 1.1//EN" "http://www.w3.org/Graphics/SVG/1.1/DTD/svg11.dtd">
<svg version="1.1" id="Layer_1" xmlns="http://www.w3.org/2000/svg" xmlns:xlink="http://www.w3.org/1999/xlink" x="0px" y="0px"
	 width="244px" height="198px" viewBox="561 285 244 198" enable-background="new 561 285 244 198" xml:space="preserve">
<path fill="#FFFFFF" d="M561.336,386.504c0,11.04,1.034,21.031,3.105,29.959c2.062,8.936,4.93,16.698,8.593,23.284
	c3.648,6.594,8.31,12.394,13.955,17.396c5.652,5.003,11.772,9.092,18.377,12.274c6.597,3.175,14.133,5.754,22.607,7.739
	c8.466,1.984,17.127,3.376,25.95,4.171c8.832,0.795,18.533,1.189,29.115,1.189c10.664,0,20.404-0.395,29.234-1.189
	c8.832-0.796,17.499-2.186,26.01-4.171c8.511-1.984,16.091-4.564,22.733-7.739c6.635-3.182,12.8-7.271,18.489-12.274
	c5.689-5.003,10.38-10.802,14.081-17.396c3.7-6.586,6.583-14.348,8.645-23.284c2.07-8.928,3.105-18.92,3.105-29.959
	c0-19.693-6.605-36.732-19.8-51.103c0.708-1.911,1.363-4.074,1.965-6.49c0.597-2.424,1.154-5.88,1.668-10.363
	c0.521-4.49,0.32-9.664-0.596-15.545c-0.916-5.88-2.606-11.872-5.079-17.99l-1.78-0.357c-1.273-0.231-3.366-0.178-6.27,0.178
	c-2.904,0.357-6.285,1.072-10.142,2.149c-3.858,1.071-8.832,3.13-14.915,6.192c-6.083,3.056-12.502,6.892-19.271,11.493
	c-11.609-3.182-27.559-4.766-47.842-4.766c-20.209,0-36.114,1.583-47.723,4.766c-6.769-4.602-13.225-8.437-19.39-11.493
	c-6.165-3.063-11.072-5.122-14.736-6.192c-3.656-1.078-7.082-1.77-10.261-2.09c-3.18-0.32-5.19-0.416-6.024-0.297
	c-0.842,0.119-1.497,0.26-1.965,0.417c-2.473,6.118-4.163,12.11-5.071,17.99c-0.916,5.88-1.117,11.055-0.603,15.545
	c0.514,4.483,1.072,7.94,1.668,10.363c0.603,2.416,1.259,4.579,1.973,6.49C567.939,349.772,561.336,366.811,561.336,386.504z
	 M591.283,416.397c0-11.434,5.212-21.916,15.638-31.446c3.091-2.855,6.717-5.011,10.85-6.49c4.14-1.464,8.809-2.297,14.021-2.499
	c5.205-0.2,10.201-0.156,14.975,0.126c4.774,0.268,10.656,0.655,17.655,1.122c6.999,0.484,13.054,0.714,18.139,0.714
	c5.093,0,11.14-0.23,18.139-0.714c6.999-0.468,12.882-0.855,17.656-1.122c4.774-0.283,9.762-0.327,14.967-0.126
	c5.219,0.201,9.896,1.034,14.021,2.499c4.14,1.471,7.759,3.635,10.864,6.49c10.418,9.374,15.63,19.856,15.63,31.446
	c0,6.839-0.856,12.89-2.569,18.176s-3.894,9.702-6.56,13.285c-2.666,3.568-6.367,6.602-11.095,9.114
	c-4.736,2.491-9.345,4.416-13.843,5.776c-4.49,1.345-10.261,2.394-17.306,3.153c-7.036,0.751-13.321,1.204-18.846,1.368
	c-5.533,0.156-12.555,0.245-21.059,0.245c-8.511,0-15.533-0.089-21.065-0.245c-5.525-0.164-11.809-0.618-18.846-1.368
	c-7.037-0.759-12.8-1.806-17.306-3.153c-4.489-1.36-9.099-3.286-13.835-5.776c-4.736-2.512-8.437-5.546-11.095-9.114
	c-2.666-3.583-4.855-7.999-6.568-13.285C592.141,429.287,591.283,423.236,591.283,416.397z M713.836,414.003
	c0,12.615,6.828,22.838,15.25,22.838s15.25-10.223,15.25-22.838s-6.828-22.838-15.25-22.838S713.836,401.387,713.836,414.003z
	 M622.336,414.003c0,12.615,6.828,22.838,15.25,22.838s15.25-10.223,15.25-22.838s-6.828-22.838-15.25-22.838
	S622.336,401.387,622.336,414.003z"/>
</svg>
