<?xml version="1.0" encoding="utf-8"?>
<!-- Generator: Adobe Illustrator 17.0.2, SVG Export Plug-In . SVG Version: 6.00 Build 0)  -->
<!DOCTYPE svg PUBLIC "-//W3C//DTD SVG 1.1//EN" "http://www.w3.org/Graphics/SVG/1.1/DTD/svg11.dtd">
<svg version="1.1" id="Layer_1" xmlns="http://www.w3.org/2000/svg" xmlns:xlink="http://www.w3.org/1999/xlink"
	 width="1366px" height="768px">
<path fill="#FFFFFF" d="M565.482,280.505c0,11.045,1.033,21.04,3.101,29.972c2.06,8.94,4.924,16.705,8.583,23.294
	c3.644,6.597,8.3,12.399,13.938,17.404c5.645,5.005,11.758,9.096,18.355,12.279c6.589,3.176,14.116,5.757,22.58,7.742
	c8.456,1.985,17.106,3.377,25.919,4.173c8.821,0.795,18.511,1.19,29.08,1.19c10.651,0,20.379-0.395,29.199-1.19
	c8.821-0.796,17.478-2.187,25.979-4.173c8.501-1.985,16.072-4.566,22.706-7.742c6.627-3.183,12.785-7.274,18.467-12.279
	c5.682-5.005,10.368-10.807,14.064-17.404c3.696-6.589,6.575-14.354,8.635-23.294c2.068-8.932,3.101-18.928,3.101-29.972
	c0-19.702-6.597-36.748-19.776-51.125c0.707-1.912,1.361-4.076,1.963-6.493c0.596-2.425,1.153-5.883,1.666-10.368
	c0.52-4.492,0.32-9.668-0.595-15.552c-0.915-5.883-2.603-11.877-5.073-17.998l-1.778-0.357c-1.271-0.231-3.362-0.178-6.262,0.178
	c-2.901,0.357-6.277,1.072-10.13,2.15c-3.853,1.071-8.821,3.131-14.897,6.195c-6.076,3.057-12.487,6.895-19.248,11.498
	c-11.595-3.183-27.526-4.768-47.785-4.768c-20.185,0-36.071,1.584-47.666,4.768c-6.761-4.604-13.209-8.441-19.367-11.498
	c-6.158-3.064-11.059-5.124-14.718-6.195c-3.652-1.078-7.073-1.771-10.249-2.091c-3.176-0.32-5.184-0.416-6.017-0.297
	c-0.841,0.119-1.495,0.26-1.963,0.417c-2.47,6.121-4.158,12.115-5.065,17.998c-0.915,5.883-1.116,11.06-0.602,15.552
	c0.513,4.485,1.071,7.943,1.666,10.368c0.602,2.417,1.257,4.581,1.971,6.493C572.078,243.757,565.482,260.804,565.482,280.505z
	 M595.394,310.411c0-11.439,5.206-21.926,15.619-31.46c3.087-2.856,6.709-5.013,10.837-6.493c4.135-1.465,8.798-2.298,14.004-2.5
	c5.199-0.2,10.189-0.156,14.957,0.126c4.768,0.268,10.643,0.655,17.634,1.123c6.991,0.484,13.038,0.714,18.117,0.714
	c5.087,0,11.127-0.23,18.117-0.714c6.991-0.468,12.867-0.855,17.635-1.123c4.768-0.283,9.75-0.327,14.949-0.126
	c5.213,0.201,9.884,1.034,14.004,2.5c4.135,1.472,7.75,3.637,10.851,6.493c10.405,9.378,15.611,19.865,15.611,31.46
	c0,6.842-0.855,12.896-2.566,18.184c-1.711,5.288-3.889,9.706-6.552,13.291c-2.663,3.57-6.359,6.605-11.082,9.118
	c-4.73,2.492-9.334,4.418-13.826,5.779c-4.485,1.346-10.249,2.395-17.285,3.154c-7.028,0.751-13.305,1.205-18.823,1.369
	c-5.526,0.156-12.54,0.245-21.034,0.245c-8.501,0-15.514-0.089-21.04-0.245c-5.518-0.164-11.795-0.618-18.823-1.369
	c-7.029-0.759-12.785-1.807-17.285-3.154c-4.484-1.361-9.088-3.287-13.818-5.779c-4.73-2.513-8.427-5.548-11.082-9.118
	c-2.663-3.585-4.849-8.003-6.56-13.291C596.25,323.307,595.394,317.253,595.394,310.411z M717.799,308.016
	c0,12.621,6.82,22.848,15.232,22.848s15.232-10.227,15.232-22.848s-6.82-22.848-15.232-22.848S717.799,295.395,717.799,308.016z
	 M626.409,308.016c0,12.621,6.82,22.848,15.232,22.848c8.412,0,15.232-10.227,15.232-22.848s-6.82-22.848-15.232-22.848
	C633.229,285.168,626.409,295.395,626.409,308.016z"/>
</svg>
