<?xml version="1.0" encoding="utf-8"?>
<!-- Generator: Adobe Illustrator 17.0.2, SVG Export Plug-In . SVG Version: 6.00 Build 0)  -->
<!DOCTYPE svg PUBLIC "-//W3C//DTD SVG 1.1//EN" "http://www.w3.org/Graphics/SVG/1.1/DTD/svg11.dtd">
<svg version="1.1" id="Layer_1" xmlns="http://www.w3.org/2000/svg" xmlns:xlink="http://www.w3.org/1999/xlink" x="0px" y="0px"
	 width="150px" height="190px" viewBox="608 289 150 190" enable-background="new 608 289 150 190" xml:space="preserve">
<path fill="#64e050" d="M741.826,440.023h-10.599c10.079-12.563,15.189-28.756,15.189-48.181c0-20.5-5.544-37.361-16.475-50.116
	c-2.599-3.033-5.519-5.465-8.745-7.482h10.956c8.668,0,15.721-7.045,15.721-15.706c0,0,0-19.614,0-22.15
	c-1.373,0-2.016,1.933-2.016,1.933s-0.938-1.933-2.016-1.933s-2.016,1.933-2.016,1.933s-1.046-1.933-2.016-1.933
	s-2.016,1.933-2.016,1.933s-0.874-1.933-2.016-1.933c0,2.816,0,22.15,0,22.15c0,1.998-1.627,3.625-3.628,3.625h-29.347
	c0.548-0.763,0.812-1.919,0.812-3.963c0-5.097-1.887-11.7-4.925-17.232c-4.092-7.453-9.559-11.556-15.393-11.556
	s-11.3,4.105-15.393,11.556c-3.038,5.533-4.925,12.136-4.925,17.232c0,1.556,0.138,2.869,0.643,3.963h-30.681
	c-2,0-3.628-1.625-3.628-3.625c0,0,0-19.51,0-22.15c-1.299,0-2.016,1.933-2.016,1.933s-0.964-1.933-2.016-1.933
	c-1.052,0-2.016,1.933-2.016,1.933s-1.177-1.933-2.016-1.933c-0.839,0-2.016,1.933-2.016,1.933s-0.725-1.933-2.016-1.933
	c0,2.291,0,22.15,0,22.15c0,8.66,7.052,15.706,15.721,15.706h10.4c-3.217,2.017-6.13,4.449-8.729,7.482
	c-10.932,12.755-16.475,29.617-16.475,50.116c0,19.425,5.11,35.618,15.189,48.181h-10.058c-8.668,0-15.721,7.045-15.721,15.706
	v22.151h16.93v-17.319c0-1.998,1.627-3.625,3.628-3.625h17.935c8.185,5.989,18.153,5.849,29.812,9.192
	c0.755,6.106,1.481,9.295,5.263,11.673c2.614,1.644,12.068,2.132,14.011,0.98c1.288-0.764-4.119-2.671-4.763-3.919
	c-1.235-2.394-1.731-5.144-2.286-8.559c11.927-3.354,22.105-8.105,30.435-14.2h23.313c2,0,3.628,1.625,3.628,3.625v22.151h12.093
	v-22.151C757.546,447.068,750.494,440.023,741.826,440.023z M675.074,318.201c0-2.489,1.075-7.124,3.435-11.422
	c2.172-3.955,4.199-0.454,4.79-0.454c0.591,0,2.618-3.501,4.79,0.454c2.36,4.297,3.435,8.933,3.435,11.422
	c0,1.835-0.554,2.297-1.278,2.711c-0.999,0.571-3.065,1.252-7.231,1.252C675.074,322.164,675.074,320.058,675.074,318.201z
	 M649.188,355.537c7.338-8.561,18.465-13.05,33.089-16.638c14.623,3.588,25.751,8.077,33.089,16.638
	c7.743,9.033,11.669,21.26,11.669,36.341c0,27.592-13.258,45.118-40.476,53.418h-8.564c-27.217-8.299-40.475-25.826-40.475-53.418
	C637.519,376.797,641.445,364.571,649.188,355.537z"/>
</svg>
