<?xml version="1.0" encoding="utf-8"?>
<!-- Generator: Adobe Illustrator 17.0.2, SVG Export Plug-In . SVG Version: 6.00 Build 0)  -->
<!DOCTYPE svg PUBLIC "-//W3C//DTD SVG 1.1//EN" "http://www.w3.org/Graphics/SVG/1.1/DTD/svg11.dtd">
<svg version="1.1" id="Layer_1" xmlns="http://www.w3.org/2000/svg" xmlns:xlink="http://www.w3.org/1999/xlink"
	 width="1366px" height="768px" viewBox="0 0 1366 768">
<path fill="#FFFFFF" d="M756.419,347.599h-13.744c13.07-16.308,19.697-37.328,19.697-62.543c0-26.61-7.189-48.497-21.365-65.054
	c-3.371-3.937-7.157-7.094-11.341-9.712h14.208c11.241,0,20.387-9.145,20.387-20.387c0,0,0-25.461,0-28.753
	c-1.78,0-2.614,2.509-2.614,2.509s-1.216-2.509-2.614-2.509s-2.614,2.509-2.614,2.509s-1.356-2.509-2.614-2.509
	s-2.614,2.509-2.614,2.509s-1.133-2.509-2.614-2.509c0,3.656,0,28.753,0,28.753c0,2.594-2.11,4.705-4.705,4.705h-38.057
	c0.711-0.99,1.053-2.491,1.053-5.144c0-6.616-2.447-15.188-6.387-22.369c-5.307-9.674-12.396-15.001-19.961-15.001
	c-7.565,0-14.653,5.328-19.961,15.001c-3.94,7.182-6.387,15.753-6.387,22.369c0,2.02,0.179,3.724,0.834,5.144h-39.786
	c-2.594,0-4.705-2.11-4.705-4.705c0,0,0-25.325,0-28.753c-1.685,0-2.614,2.509-2.614,2.509s-1.25-2.509-2.614-2.509
	s-2.614,2.509-2.614,2.509s-1.526-2.509-2.614-2.509s-2.614,2.509-2.614,2.509s-0.94-2.509-2.614-2.509c0,2.974,0,28.753,0,28.753
	c0,11.241,9.145,20.387,20.387,20.387h13.486c-4.172,2.618-7.949,5.775-11.32,9.712c-14.177,16.557-21.365,38.445-21.365,65.054
	c0,25.215,6.627,46.235,19.697,62.543h-13.043c-11.241,0-20.387,9.145-20.387,20.387v28.754h21.955v-22.481
	c0-2.594,2.11-4.705,4.705-4.705h23.258c10.614,7.774,23.54,7.592,38.659,11.932c0.979,7.926,1.92,12.065,6.825,15.153
	c3.39,2.134,15.65,2.768,18.169,1.272c1.67-0.992-5.342-3.467-6.177-5.087c-1.602-3.107-2.245-6.677-2.964-11.11
	c15.467-4.354,28.665-10.521,39.468-18.433h30.232c2.594,0,4.705,2.11,4.705,4.705v28.754h15.682v-28.754
	C776.805,356.745,767.66,347.599,756.419,347.599z M669.857,189.465c0-3.231,1.394-9.248,4.454-14.827
	c2.817-5.134,5.445-0.589,6.212-0.589s3.395-4.545,6.212,0.589c3.06,5.578,4.454,11.596,4.454,14.827
	c0,2.382-0.719,2.982-1.657,3.519c-1.296,0.741-3.974,1.625-9.377,1.625C669.857,194.609,669.857,191.876,669.857,189.465z
	 M636.289,237.93c9.516-11.113,23.945-16.94,42.909-21.597c18.963,4.657,33.393,10.484,42.909,21.597
	c10.041,11.726,15.132,27.597,15.132,47.173c0,35.816-17.193,58.567-52.488,69.341h-11.106
	c-35.294-10.773-52.487-33.524-52.487-69.341C621.157,265.527,626.248,249.657,636.289,237.93z"/>
</svg>
